<svg width="42" height="26" viewBox="0 0 42 26" fill="none" xmlns="http://www.w3.org/2000/svg">
<path d="M0.15979 22C0.15979 23.0609 0.64137 24.0783 1.49859 24.8284C2.35581 25.5786 3.51844 26 4.73073 26H36.7273C37.9396 26 39.1023 25.5786 39.9595 24.8284C40.8167 24.0783 41.2983 23.0609 41.2983 22V21.5H0.15979V22Z" fill="#880082"/>
<path d="M0.15979 17.07H41.2983V21.67H0.15979V17.07Z" fill="#3558A0"/>
<path d="M0.15979 12.83H41.2983V17.33H0.15979V12.83Z" fill="#138F3E"/>
<path d="M0.15979 8.5H41.2983V13H0.15979V8.5Z" fill="#FAD220"/>
<path d="M0.15979 4.16998H41.2983V8.66998H0.15979V4.16998Z" fill="#FF7300"/>
<path d="M36.7273 0H4.73073C3.51844 0 2.35581 0.421427 1.49859 1.17157C0.64137 1.92172 0.15979 2.93913 0.15979 4L0.15979 4.33H41.2983V4C41.2983 2.93913 40.8167 1.92172 39.9595 1.17157C39.1023 0.421427 37.9396 0 36.7273 0Z" fill="#FF000E"/>
</svg>
