<svg width="204" height="55" viewBox="0 0 204 55" fill="none" xmlns="http://www.w3.org/2000/svg">
<path d="M22.494 22.878C22.5433 22.9767 22.5927 23.0507 22.642 23.1C22.6913 23.1 22.716 23.1493 22.716 23.248C22.716 23.544 22.0993 24.1113 20.866 24.95C19.6327 25.7393 18.1033 26.652 16.278 27.688C14.4527 28.6747 12.5287 29.686 10.506 30.722C8.48333 31.7087 6.68267 32.5227 5.104 33.164C5.104 33.2627 5.05467 33.5833 4.956 34.126C4.85733 34.6687 4.808 35.014 4.808 35.162V36.568C4.808 37.7027 4.98067 38.8373 5.326 39.972C5.67133 41.0573 6.18933 42.044 6.88 42.932C7.62 43.82 8.508 44.5353 9.544 45.078C10.58 45.6207 11.7887 45.892 13.17 45.892C13.762 45.892 14.4773 45.7933 15.316 45.596C16.204 45.3493 17.0427 45.0287 17.832 44.634C18.6707 44.19 19.4107 43.672 20.052 43.08C20.6933 42.488 21.088 41.822 21.236 41.082C21.828 41.1313 22.1733 41.304 22.272 41.6C22.42 41.896 22.494 42.0933 22.494 42.192C22.494 43.4747 22.1733 44.5847 21.532 45.522C20.94 46.41 20.1753 47.15 19.238 47.742C18.35 48.2847 17.388 48.704 16.352 49C15.3653 49.2467 14.4773 49.37 13.688 49.37C9.44533 49.37 6.362 48.186 4.438 45.818C2.514 43.45 1.552 40.342 1.552 36.494C1.552 36.2967 1.60133 35.8527 1.7 35.162C1.79867 34.4713 1.848 34.0027 1.848 33.756C1.848 33.7067 1.74933 33.6573 1.552 33.608C1.35467 33.5093 1.13267 33.4107 0.886 33.312C0.688667 33.2133 0.491333 33.0653 0.294 32.868C0.146 32.6213 0.0720001 32.3007 0.0720001 31.906C0.0720001 31.5113 0.22 31.1907 0.516 30.944C0.812 30.6973 1.15733 30.4753 1.552 30.278L2.292 29.834C2.736 27.9593 3.254 26.1587 3.846 24.432C4.48733 22.656 5.27667 20.88 6.214 19.104C5.81933 19.104 5.4 19.0547 4.956 18.956C4.512 18.8573 4.29 18.512 4.29 17.92C4.29 17.2293 4.68467 16.4647 5.474 15.626C6.31267 14.7873 7.25 13.998 8.286 13.258C9.37133 12.518 10.432 11.9013 11.468 11.408C12.504 10.8653 13.244 10.594 13.688 10.594C13.8853 10.594 14.0087 10.6433 14.058 10.742C14.1567 10.7913 14.3047 10.816 14.502 10.816C14.8967 10.816 15.39 10.742 15.982 10.594C16.6233 10.446 17.2893 10.2733 17.98 10.076C18.6707 9.87866 19.312 9.706 19.904 9.558C20.5453 9.41 21.0633 9.336 21.458 9.336C21.902 9.336 22.2227 9.484 22.42 9.78C22.6667 10.076 22.79 10.3967 22.79 10.742C22.79 11.1367 22.5433 11.4327 22.05 11.63C21.5567 11.778 21.1127 11.9013 20.718 12C19.3367 12.2467 17.8813 12.6907 16.352 13.332C14.872 13.924 13.4907 14.59 12.208 15.33C11.7147 15.8727 11.1227 16.662 10.432 17.698C9.74133 18.6847 9.07533 19.8193 8.434 21.102C7.79267 22.3847 7.20067 23.7167 6.658 25.098C6.16467 26.4793 5.844 27.7867 5.696 29.02L6.954 28.428C10.7527 26.6027 13.836 25.172 16.204 24.136C18.6213 23.1 20.496 22.582 21.828 22.582C22.0747 22.582 22.2967 22.6807 22.494 22.878ZM45.7404 26.43C45.7404 26.7753 45.5924 27.0713 45.2964 27.318C45.0004 27.5153 44.6551 27.688 44.2604 27.836C43.8657 27.984 43.4711 28.1073 43.0764 28.206C42.6817 28.2553 42.3611 28.28 42.1144 28.28C41.3744 28.28 40.8811 28.2307 40.6344 28.132C40.3877 28.0333 40.1904 27.984 40.0424 27.984C38.8091 27.984 37.8224 28.0827 37.0824 28.28C36.3424 28.4773 35.7504 28.798 35.3064 29.242C34.9117 29.686 34.6404 30.2533 34.4924 30.944C34.3937 31.5853 34.3444 32.3747 34.3444 33.312C34.3444 34.8907 34.3937 36.1487 34.4924 37.086C34.6404 38.0233 34.7637 38.788 34.8624 39.38C35.0104 39.972 35.1337 40.4407 35.2324 40.786C35.3804 41.082 35.4544 41.378 35.4544 41.674C35.4544 42.0687 35.2324 42.488 34.7884 42.932C34.3937 43.376 34.0237 43.598 33.6784 43.598C33.0864 43.598 32.5437 43.08 32.0504 42.044C31.6064 40.9587 31.2117 39.7007 30.8664 38.27C30.5704 36.79 30.3237 35.3347 30.1264 33.904C29.9291 32.4733 29.8304 31.388 29.8304 30.648C29.8304 29.8093 29.9044 29.02 30.0524 28.28C30.2004 27.4907 30.3977 26.8247 30.6444 26.282C30.8911 25.69 31.1624 25.2213 31.4584 24.876C31.7544 24.5307 32.0504 24.358 32.3464 24.358C32.5931 24.358 32.7904 24.4567 32.9384 24.654C33.0864 24.802 33.2097 24.9993 33.3084 25.246C33.4071 25.4433 33.5057 25.6407 33.6044 25.838C33.7524 25.986 33.9251 26.06 34.1224 26.06C34.5664 26.06 35.2817 25.838 36.2684 25.394C37.2551 24.95 38.4637 24.728 39.8944 24.728C41.2264 24.728 42.2131 24.7773 42.8544 24.876C43.5451 24.9253 44.2111 25.0733 44.8524 25.32C45.0004 25.3693 45.1731 25.4927 45.3704 25.69C45.6171 25.838 45.7404 26.0847 45.7404 26.43ZM56.0565 14.96C56.0565 15.0587 55.8838 15.256 55.5385 15.552C55.1931 15.848 54.7738 16.1687 54.2805 16.514C53.8365 16.81 53.3678 17.0813 52.8745 17.328C52.3811 17.5747 51.9865 17.698 51.6905 17.698C51.4931 17.698 51.2218 17.698 50.8765 17.698C50.5805 17.6487 50.2598 17.55 49.9145 17.402C49.6185 17.254 49.3471 17.0567 49.1005 16.81C48.8538 16.514 48.7305 16.144 48.7305 15.7C48.7305 15.0093 48.9771 14.368 49.4705 13.776C49.9638 13.1347 50.6051 12.814 51.3945 12.814C51.5425 12.814 51.8631 12.888 52.3565 13.036C52.8991 13.1347 53.4418 13.2827 53.9845 13.48C54.5271 13.6773 54.9958 13.8993 55.3905 14.146C55.8345 14.3927 56.0565 14.664 56.0565 14.96ZM58.4985 42.636C58.4985 42.9813 58.2271 43.2773 57.6845 43.524C57.1911 43.7707 56.8211 43.894 56.5745 43.894C56.0811 43.894 55.6371 43.5733 55.2425 42.932C54.8478 42.2907 54.5025 41.5507 54.2065 40.712C53.9105 39.8733 53.6638 39.084 53.4665 38.344C53.2691 37.5547 53.1211 37.012 53.0225 36.716C52.8745 36.2227 52.6771 35.6307 52.4305 34.94C52.1838 34.2493 51.9371 33.5833 51.6905 32.942C51.4931 32.3007 51.3205 31.7333 51.1725 31.24C51.0245 30.7467 50.9505 30.4753 50.9505 30.426C50.9505 29.7353 51.0738 29.094 51.3205 28.502C51.6165 27.91 51.9618 27.614 52.3565 27.614C52.8005 27.614 53.2691 27.9593 53.7625 28.65C54.2558 29.3407 54.7245 30.2287 55.1685 31.314C55.6618 32.35 56.1058 33.5093 56.5005 34.792C56.8951 36.0253 57.2405 37.2093 57.5365 38.344C57.8325 39.4293 58.0545 40.3913 58.2025 41.23C58.3998 42.0193 58.4985 42.488 58.4985 42.636ZM84.4927 35.532C84.4927 36.0253 84.4187 36.5433 84.2707 37.086C84.1227 37.5793 83.9747 37.9987 83.8267 38.344C83.728 38.492 83.2594 39.01 82.4207 39.898C81.6314 40.7367 80.62 41.6247 79.3867 42.562C78.2027 43.4993 76.846 44.3627 75.3167 45.152C73.8367 45.892 72.406 46.262 71.0247 46.262C70.186 46.262 69.3227 46.114 68.4347 45.818C67.596 45.522 66.8067 45.0533 66.0667 44.412C65.3267 43.7213 64.71 42.8827 64.2167 41.896C63.7727 40.9093 63.5507 39.7007 63.5507 38.27C63.5507 35.902 63.9454 33.756 64.7347 31.832C65.524 29.908 66.3134 28.3787 67.1027 27.244C67.448 26.7013 67.892 26.1587 68.4347 25.616C69.0267 25.024 69.594 24.506 70.1367 24.062C70.6794 23.5687 71.1727 23.174 71.6167 22.878C72.11 22.582 72.4554 22.434 72.6527 22.434C73.0967 22.434 73.4914 22.5573 73.8367 22.804C74.2314 23.0507 74.4287 23.2973 74.4287 23.544C74.4287 23.9387 74.3054 24.284 74.0587 24.58C73.8614 24.8267 73.5654 25.1227 73.1707 25.468C72.776 25.764 72.3074 26.1833 71.7647 26.726C71.222 27.2193 70.6547 27.8853 70.0627 28.724C68.8787 30.352 67.9907 32.0293 67.3987 33.756C66.856 35.4333 66.5847 36.9133 66.5847 38.196C66.5847 39.4787 67.0534 40.5147 67.9907 41.304C68.9774 42.044 69.9887 42.414 71.0247 42.414C72.8994 42.414 74.552 41.9947 75.9827 41.156C77.4627 40.3173 78.7207 39.38 79.7567 38.344C80.7927 37.308 81.6314 36.3707 82.2727 35.532C82.914 34.6933 83.3827 34.274 83.6787 34.274C84.2214 34.274 84.4927 34.6933 84.4927 35.532ZM116.695 41.082C116.695 41.4767 116.646 41.7727 116.547 41.97C116.448 42.118 116.202 42.2413 115.807 42.34C115.363 42.488 114.796 42.6607 114.105 42.858C113.464 43.006 112.748 43.1787 111.959 43.376C111.17 43.524 110.356 43.672 109.517 43.82C108.728 43.9187 107.988 43.968 107.297 43.968C106.458 43.968 105.521 43.9187 104.485 43.82C103.498 43.7213 102.536 43.5733 101.599 43.376C100.662 43.1293 99.7982 42.8827 99.0088 42.636C98.2688 42.34 97.7262 41.9947 97.3808 41.6C97.6275 42.636 97.8495 43.672 98.0468 44.708C98.2442 45.744 98.3922 46.78 98.4908 47.816C98.4908 48.0627 98.4168 48.2847 98.2688 48.482C98.1702 48.63 97.8495 48.704 97.3068 48.704C97.0602 48.704 96.8135 48.6547 96.5668 48.556C96.3695 48.408 96.1968 48.1367 96.0488 47.742C95.6048 46.7553 95.2348 45.8427 94.9388 45.004C94.6428 44.116 94.3715 43.228 94.1248 42.34C93.9275 41.452 93.7055 40.5147 93.4588 39.528C93.2122 38.5413 92.9162 37.456 92.5708 36.272C92.0282 34.348 91.4608 32.3007 90.8688 30.13C90.2768 27.91 89.7342 25.8133 89.2408 23.84C88.7475 21.8173 88.3528 20.0413 88.0568 18.512C87.7608 16.9333 87.6128 15.8233 87.6128 15.182C87.6128 14.886 87.6128 14.4913 87.6128 13.998C87.6622 13.5047 87.7362 13.036 87.8348 12.592C87.9828 12.0987 88.1555 11.704 88.3528 11.408C88.5995 11.0627 88.9202 10.89 89.3148 10.89C89.5615 10.89 89.8082 11.2847 90.0548 12.074C90.3508 12.814 90.5975 13.6527 90.7948 14.59C91.0415 15.478 91.2388 16.3413 91.3868 17.18C91.5842 17.9693 91.6828 18.3887 91.6828 18.438C91.8802 19.5233 92.1022 20.732 92.3488 22.064C92.6448 23.3467 92.9408 24.654 93.2368 25.986C93.5328 27.318 93.8535 28.6007 94.1988 29.834C94.5442 31.018 94.9142 32.0293 95.3088 32.868C95.3582 32.3747 95.5308 31.6593 95.8268 30.722C96.1228 29.7847 96.5175 28.7733 97.0108 27.688C97.5042 26.6027 98.0468 25.4927 98.6388 24.358C99.2802 23.174 99.9215 22.1133 100.563 21.176C101.254 20.2387 101.92 19.474 102.561 18.882C103.252 18.29 103.893 17.994 104.485 17.994C105.422 17.994 106.064 18.1173 106.409 18.364C106.804 18.6107 107.001 18.9067 107.001 19.252C107.001 19.548 106.582 20.14 105.743 21.028C104.904 21.8667 103.967 23.0013 102.931 24.432C101.895 25.8133 100.958 27.466 100.119 29.39C99.2802 31.2647 98.8608 33.3613 98.8608 35.68C98.8608 36.5187 99.0828 37.2587 99.5268 37.9C100.02 38.492 100.637 38.9853 101.377 39.38C102.166 39.7747 103.03 40.0953 103.967 40.342C104.954 40.5393 105.916 40.638 106.853 40.638C107.692 40.638 108.604 40.6133 109.591 40.564C110.578 40.5147 111.49 40.4653 112.329 40.416C113.217 40.3173 113.957 40.2433 114.549 40.194C115.19 40.1447 115.585 40.12 115.733 40.12C115.98 40.12 116.202 40.194 116.399 40.342C116.596 40.49 116.695 40.7367 116.695 41.082ZM124.645 44.264C124.645 44.56 124.497 44.856 124.201 45.152C123.905 45.3987 123.56 45.6453 123.165 45.892C122.82 46.0893 122.475 46.262 122.129 46.41C121.784 46.5087 121.587 46.558 121.537 46.558C121.093 46.558 120.748 46.4593 120.501 46.262C120.304 46.0153 120.131 45.7687 119.983 45.522C119.885 45.226 119.811 44.9547 119.761 44.708C119.761 44.4613 119.761 44.2887 119.761 44.19C119.761 43.9927 119.811 43.746 119.909 43.45C120.008 43.1047 120.156 42.784 120.353 42.488C120.551 42.192 120.773 41.9453 121.019 41.748C121.315 41.5013 121.636 41.378 121.981 41.378C122.623 41.378 123.215 41.6493 123.757 42.192C124.349 42.7347 124.645 43.4253 124.645 44.264ZM153.407 52.256C153.456 52.4533 153.481 52.626 153.481 52.774C153.481 52.9713 153.481 53.1193 153.481 53.218C153.481 53.7113 153.358 54.0567 153.111 54.254C152.914 54.4513 152.494 54.55 151.853 54.55C151.261 54.55 150.866 54.4513 150.669 54.254C150.373 53.958 149.978 53.1933 149.485 51.96C148.992 50.7267 148.474 49.2713 147.931 47.594C147.388 45.9167 146.846 44.116 146.303 42.192C145.81 40.268 145.366 38.4427 144.971 36.716C144.428 36.9627 143.688 37.234 142.751 37.53C141.814 37.7767 140.852 38.0233 139.865 38.27C138.73 38.5167 137.546 38.788 136.313 39.084C135.869 41.2053 135.524 43.0307 135.277 44.56C135.08 46.04 134.882 47.2733 134.685 48.26C134.537 49.1973 134.315 49.888 134.019 50.332C133.772 50.8253 133.353 51.072 132.761 51.072C132.366 51.072 132.021 50.85 131.725 50.406C131.429 49.962 131.281 49.296 131.281 48.408C131.281 47.964 131.404 46.928 131.651 45.3C131.898 43.672 132.169 41.8713 132.465 39.898C132.761 37.8753 133.057 35.8773 133.353 33.904C133.649 31.9307 133.846 30.3767 133.945 29.242C133.994 28.65 134.142 27.688 134.389 26.356C134.685 25.024 134.981 23.6673 135.277 22.286C135.573 20.8553 135.869 19.5727 136.165 18.438C136.461 17.3033 136.658 16.662 136.757 16.514C137.546 14.6887 138.04 12.814 138.237 10.89C138.484 8.966 138.656 7.21467 138.755 5.636C138.903 4.008 139.125 2.70066 139.421 1.714C139.717 0.677997 140.334 0.159998 141.271 0.159998C141.518 0.159998 141.764 0.357332 142.011 0.751999C142.307 1.14666 142.578 1.61533 142.825 2.158C143.072 2.70066 143.269 3.24333 143.417 3.786C143.565 4.27933 143.664 4.674 143.713 4.97C143.762 5.266 143.812 5.858 143.861 6.746C143.96 7.634 144.034 8.62066 144.083 9.706C144.182 10.742 144.256 11.778 144.305 12.814C144.404 13.8007 144.478 14.5653 144.527 15.108C144.675 16.736 144.897 18.5613 145.193 20.584C145.538 22.6067 145.884 24.506 146.229 26.282C146.574 28.058 146.895 29.5627 147.191 30.796C147.487 31.98 147.709 32.572 147.857 32.572C148.054 32.572 148.301 32.5227 148.597 32.424C148.942 32.3253 149.263 32.276 149.559 32.276C149.954 32.276 150.151 32.4733 150.151 32.868C150.151 33.2627 150.052 33.5833 149.855 33.83C149.658 34.0767 149.436 34.2987 149.189 34.496C148.992 34.6933 148.794 34.866 148.597 35.014C148.449 35.162 148.375 35.3347 148.375 35.532C148.375 35.9267 148.597 36.938 149.041 38.566L150.225 42.932C150.324 43.3267 150.546 43.9927 150.891 44.93C151.236 45.8673 151.582 46.854 151.927 47.89C152.322 48.8767 152.667 49.7893 152.963 50.628C153.259 51.516 153.407 52.0587 153.407 52.256ZM136.979 35.31C137.275 35.31 137.818 35.236 138.607 35.088C139.396 34.8907 140.21 34.6687 141.049 34.422C141.888 34.1753 142.628 33.9287 143.269 33.682C143.91 33.4353 144.231 33.238 144.231 33.09C144.231 32.942 144.132 32.572 143.935 31.98C143.787 31.3387 143.59 30.5493 143.343 29.612C143.146 28.6253 142.924 27.5153 142.677 26.282C142.43 25.0487 142.208 23.7413 142.011 22.36C141.912 21.472 141.789 20.2633 141.641 18.734C141.493 17.2047 141.345 15.7 141.197 14.22C141.049 12.6907 140.926 11.3833 140.827 10.298C140.728 9.21267 140.679 8.67 140.679 8.67C140.679 8.67 140.605 9.04 140.457 9.78C140.309 10.4707 140.136 11.26 139.939 12.148C139.791 12.9867 139.643 13.8007 139.495 14.59C139.396 15.33 139.347 15.7493 139.347 15.848V17.92C139.347 18.0187 139.273 18.4627 139.125 19.252C139.026 19.992 138.878 20.954 138.681 22.138C138.484 23.2727 138.262 24.5307 138.015 25.912C137.818 27.244 137.62 28.5267 137.423 29.76C137.226 30.9933 137.053 32.1033 136.905 33.09C136.806 34.0273 136.757 34.6687 136.757 35.014C136.757 35.2113 136.831 35.31 136.979 35.31ZM177.697 26.43C177.697 26.7753 177.549 27.0713 177.253 27.318C176.957 27.5153 176.612 27.688 176.217 27.836C175.823 27.984 175.428 28.1073 175.033 28.206C174.639 28.2553 174.318 28.28 174.071 28.28C173.331 28.28 172.838 28.2307 172.591 28.132C172.345 28.0333 172.147 27.984 171.999 27.984C170.766 27.984 169.779 28.0827 169.039 28.28C168.299 28.4773 167.707 28.798 167.263 29.242C166.869 29.686 166.597 30.2533 166.449 30.944C166.351 31.5853 166.301 32.3747 166.301 33.312C166.301 34.8907 166.351 36.1487 166.449 37.086C166.597 38.0233 166.721 38.788 166.819 39.38C166.967 39.972 167.091 40.4407 167.189 40.786C167.337 41.082 167.411 41.378 167.411 41.674C167.411 42.0687 167.189 42.488 166.745 42.932C166.351 43.376 165.981 43.598 165.635 43.598C165.043 43.598 164.501 43.08 164.007 42.044C163.563 40.9587 163.169 39.7007 162.823 38.27C162.527 36.79 162.281 35.3347 162.083 33.904C161.886 32.4733 161.787 31.388 161.787 30.648C161.787 29.8093 161.861 29.02 162.009 28.28C162.157 27.4907 162.355 26.8247 162.601 26.282C162.848 25.69 163.119 25.2213 163.415 24.876C163.711 24.5307 164.007 24.358 164.303 24.358C164.55 24.358 164.747 24.4567 164.895 24.654C165.043 24.802 165.167 24.9993 165.265 25.246C165.364 25.4433 165.463 25.6407 165.561 25.838C165.709 25.986 165.882 26.06 166.079 26.06C166.523 26.06 167.239 25.838 168.225 25.394C169.212 24.95 170.421 24.728 171.851 24.728C173.183 24.728 174.17 24.7773 174.811 24.876C175.502 24.9253 176.168 25.0733 176.809 25.32C176.957 25.3693 177.13 25.4927 177.327 25.69C177.574 25.838 177.697 26.0847 177.697 26.43ZM203.258 15.552C202.616 16.292 201.704 17.032 200.52 17.772C199.336 18.4627 198.152 19.104 196.968 19.696C195.784 20.288 194.748 20.806 193.86 21.25C192.972 21.6447 192.528 21.916 192.528 22.064C192.528 22.212 192.626 22.656 192.824 23.396C193.021 24.136 193.243 25.024 193.49 26.06C193.786 27.0467 194.082 28.0827 194.378 29.168C194.674 30.2533 194.92 31.2153 195.118 32.054C195.216 32.5473 195.34 33.1887 195.488 33.978C195.636 34.7673 195.759 35.5567 195.858 36.346C196.006 37.1353 196.129 37.8507 196.228 38.492C196.326 39.084 196.376 39.4047 196.376 39.454C196.376 40.194 196.252 40.9587 196.006 41.748C195.759 42.5373 195.364 42.932 194.822 42.932C194.526 42.932 194.254 42.8087 194.008 42.562C193.761 42.3153 193.539 42.044 193.342 41.748C193.144 41.4027 192.996 41.082 192.898 40.786C192.799 40.49 192.75 40.268 192.75 40.12C192.75 40.0213 192.75 39.8733 192.75 39.676C192.799 39.4787 192.824 39.2567 192.824 39.01C192.824 38.0727 192.676 36.716 192.38 34.94C192.281 34.3973 192.084 33.5587 191.788 32.424C191.492 31.2893 191.196 30.13 190.9 28.946C190.554 27.5647 190.16 26.06 189.716 24.432C189.518 23.7413 189.395 23.396 189.346 23.396C189 23.396 188.408 23.618 187.57 24.062C186.78 24.4567 185.868 24.9747 184.832 25.616C183.796 26.208 182.71 26.874 181.576 27.614C180.441 28.3047 179.38 28.9707 178.393 29.612C177.407 30.204 176.568 30.722 175.877 31.166C175.137 31.5607 174.693 31.758 174.545 31.758C173.904 31.758 173.386 31.536 172.991 31.092C172.597 30.648 172.399 30.1547 172.399 29.612C172.399 29.316 172.819 28.8967 173.657 28.354C174.447 27.762 175.458 27.1207 176.691 26.43C177.875 25.7393 179.183 25.024 180.613 24.284C181.995 23.544 183.278 22.878 184.462 22.286C185.695 21.694 186.706 21.2007 187.496 20.806C188.334 20.4113 188.754 20.214 188.754 20.214C188.31 17.9447 187.94 15.922 187.644 14.146C187.397 12.6167 187.15 11.2107 186.904 9.928C186.706 8.64533 186.608 7.95466 186.608 7.856C186.608 7.21467 186.731 6.746 186.978 6.45C187.274 6.10466 187.594 5.932 187.94 5.932C188.482 5.932 188.828 6.302 188.976 7.042C189.518 9.706 190.012 12.074 190.455 14.146C190.949 16.218 191.418 17.8953 191.862 19.178C192.306 19.0793 193.07 18.808 194.156 18.364C195.241 17.8707 196.376 17.3527 197.56 16.81C198.744 16.2673 199.804 15.7987 200.742 15.404C201.728 14.96 202.296 14.738 202.443 14.738C202.74 14.738 202.912 14.8367 202.962 15.034C203.06 15.2313 203.159 15.404 203.258 15.552Z" fill="#F9F9F9"/>
</svg>
